<svg xmlns="http://www.w3.org/2000/svg" viewBox="0 0 1200 1200" role="img" aria-labelledby="title desc">
  <title id="title">Azure exposure map</title>
  <desc id="desc">An Azure tenant exposure map showing identities, subscriptions, sensitive data, and an attacker path crossing privilege boundaries.</desc>
  <rect width="1200" height="1200" fill="#191918"/>

  <g fill="none" stroke="#eceff3" stroke-width="12" opacity=".18">
    <path d="M174 242h852"/>
    <path d="M174 420h852"/>
    <path d="M174 598h852"/>
    <path d="M174 776h852"/>
    <path d="M174 954h852"/>
    <path d="M244 152v900"/>
    <path d="M422 152v900"/>
    <path d="M600 152v900"/>
    <path d="M778 152v900"/>
    <path d="M956 152v900"/>
  </g>

  <g stroke="#eceff3" stroke-width="14" stroke-linejoin="round">
    <path d="M142 166h258c34 0 62 28 62 62v188c0 34-28 62-62 62H142c-34 0-62-28-62-62V228c0-34 28-62 62-62Z" fill="#191918"/>
    <path d="M522 146h310c36 0 66 30 66 66v224c0 36-30 66-66 66H522c-36 0-66-30-66-66V212c0-36 30-66 66-66Z" fill="#191918"/>
    <path d="M762 676h292c34 0 62 28 62 62v166c0 34-28 62-62 62H762c-34 0-62-28-62-62V738c0-34 28-62 62-62Z" fill="#191918"/>
    <path d="M168 704h276c34 0 62 28 62 62v138c0 34-28 62-62 62H168c-34 0-62-28-62-62V766c0-34 28-62 62-62Z" fill="#191918"/>
  </g>

  <g stroke="#eceff3" stroke-width="12">
    <circle cx="196" cy="286" r="42" fill="#191918"/>
    <circle cx="326" cy="286" r="42" fill="#191918"/>
    <circle cx="260" cy="382" r="42" fill="#191918"/>
    <path d="M226 316l26 36"/>
    <path d="M296 316l-26 36"/>
  </g>
  <circle cx="196" cy="286" r="14" fill="#ff3b52"/>
  <circle cx="326" cy="286" r="14" fill="#eceff3" opacity=".50"/>
  <circle cx="260" cy="382" r="14" fill="#ff3b52"/>

  <g fill="none" stroke="#eceff3" stroke-width="16" stroke-linecap="round">
    <path d="M544 242h276"/>
    <path d="M544 306h220"/>
    <path d="M544 370h250"/>
  </g>
  <path d="M504 208h76v76h-76Z" fill="#191918" stroke="#eceff3" stroke-width="14" stroke-linejoin="round"/>
  <path d="M506 332h76v76h-76Z" fill="#191918" stroke="#eceff3" stroke-width="14" stroke-linejoin="round"/>
  <circle cx="850" cy="390" r="92" fill="#ff3b52" opacity=".16"/>
  <circle cx="850" cy="390" r="26" fill="#ff3b52"/>

  <g stroke="#eceff3" stroke-width="14" stroke-linejoin="round">
    <path d="M210 782h170l40 50v92H170v-92l40-50Z" fill="#191918"/>
    <path d="M822 756h190l44 54v118H778V810l44-54Z" fill="#191918"/>
  </g>
  <circle cx="888" cy="842" r="118" fill="#ff3b52" opacity=".18"/>
  <circle cx="888" cy="842" r="30" fill="#ff3b52"/>
  <path d="M236 856h128" stroke="#eceff3" stroke-width="16" stroke-linecap="round" opacity=".42"/>
  <path d="M236 900h92" stroke="#eceff3" stroke-width="16" stroke-linecap="round" opacity=".28"/>

  <g fill="none" stroke="#ff3b52" stroke-width="18" stroke-linecap="round" stroke-linejoin="round">
    <path d="M260 382c108 76 210 36 284-74"/>
    <path d="M544 308l-36-2"/>
    <path d="M544 308l-10 34"/>
    <path d="M850 390c-34 164 4 286 38 452"/>
    <path d="M888 842l-32-30"/>
    <path d="M888 842l28-34"/>
  </g>

  <path d="M190 1040h820" stroke="#eceff3" stroke-width="20" stroke-linecap="round" opacity=".22"/>
  <path d="M252 994h210" stroke="#eceff3" stroke-width="18" stroke-linecap="round" opacity=".42"/>
  <path d="M516 994h236" stroke="#ff3b52" stroke-width="18" stroke-linecap="round"/>
  <path d="M808 994h142" stroke="#eceff3" stroke-width="18" stroke-linecap="round" opacity=".30"/>
</svg>
