<svg xmlns="http://www.w3.org/2000/svg" viewBox="0 0 1200 1200" role="img" aria-labelledby="title desc">
  <title id="title">Shift in defensive balance</title>
  <desc id="desc">A tilted balance beam with many smaller red nodes outweighing a single larger node.</desc>
  <rect width="1200" height="1200" fill="#fcfcfc"/>
  <path d="M154 940h892" stroke="#23262b" stroke-width="18" stroke-linecap="round" opacity=".14"/>
  <path d="M600 280v576" stroke="#23262b" stroke-width="28" stroke-linecap="round"/>
  <path d="M490 856h220" stroke="#23262b" stroke-width="32" stroke-linecap="round"/>
  <path d="M350 355l500 122" stroke="#d0021b" stroke-width="34" stroke-linecap="round"/>
  <circle cx="600" cy="416" r="56" fill="#fcfcfc" stroke="#23262b" stroke-width="24"/>
  <path d="M330 388l-122 260h244L330 388Z" fill="#ffffff" stroke="#23262b" stroke-width="18" stroke-linejoin="round"/>
  <path d="M872 520L732 812h280L872 520Z" fill="#ffffff" stroke="#23262b" stroke-width="18" stroke-linejoin="round"/>
  <circle cx="276" cy="610" r="34" fill="#d0021b"/>
  <circle cx="334" cy="578" r="34" fill="#d0021b" opacity=".84"/>
  <circle cx="390" cy="614" r="34" fill="#d0021b" opacity=".7"/>
  <circle cx="806" cy="760" r="44" fill="#23262b"/>
  <circle cx="872" cy="716" r="44" fill="#23262b" opacity=".78"/>
  <circle cx="940" cy="766" r="44" fill="#23262b" opacity=".62"/>
  <path d="M236 244h270" stroke="#d0021b" stroke-width="18" stroke-linecap="round"/>
  <path d="M236 296h190" stroke="#d0021b" stroke-width="18" stroke-linecap="round" opacity=".7"/>
  <path d="M720 252h244" stroke="#23262b" stroke-width="18" stroke-linecap="round" opacity=".38"/>
  <path d="M782 304h182" stroke="#23262b" stroke-width="18" stroke-linecap="round" opacity=".26"/>
</svg>
