<svg xmlns="http://www.w3.org/2000/svg" viewBox="0 0 1200 1200" role="img" aria-labelledby="title desc">
  <title id="title">Newsroom learning pipeline</title>
  <desc id="desc">A continuous newsroom pipeline connecting expert steering, AI research loops, a knowledge graph, and practical security guidance.</desc>
  <rect width="1200" height="1200" fill="#101214"/>

  <g fill="none" stroke="#eceff3" stroke-width="12" opacity=".12">
    <path d="M170 234h860"/>
    <path d="M170 406h860"/>
    <path d="M170 578h860"/>
    <path d="M170 750h860"/>
    <path d="M170 922h860"/>
    <path d="M282 150v900"/>
    <path d="M454 150v900"/>
    <path d="M626 150v900"/>
    <path d="M798 150v900"/>
    <path d="M970 150v900"/>
  </g>

  <path d="M194 168h812" stroke="#eceff3" stroke-width="18" stroke-linecap="round" opacity=".24"/>
  <path d="M246 168h326" stroke="#ff3b52" stroke-width="18" stroke-linecap="round"/>
  <circle cx="216" cy="168" r="28" fill="#ff3b52"/>
  <circle cx="616" cy="168" r="18" fill="#eceff3" opacity=".45"/>
  <circle cx="790" cy="168" r="18" fill="#eceff3" opacity=".25"/>
  <circle cx="958" cy="168" r="18" fill="#eceff3" opacity=".25"/>

  <g stroke="#eceff3" stroke-width="14" stroke-linejoin="round">
    <path d="M156 312h214c28 0 50 22 50 50v104c0 28-22 50-50 50H156c-28 0-50-22-50-50V362c0-28 22-50 50-50Z" fill="#191d22"/>
    <path d="M490 270h220c32 0 58 26 58 58v172c0 32-26 58-58 58H490c-32 0-58-26-58-58V328c0-32 26-58 58-58Z" fill="#191d22"/>
    <path d="M844 312h200c28 0 50 22 50 50v104c0 28-22 50-50 50H844c-28 0-50-22-50-50V362c0-28 22-50 50-50Z" fill="#191d22"/>
  </g>

  <g fill="none" stroke="#ff3b52" stroke-width="16" stroke-linecap="round" stroke-linejoin="round">
    <path d="M420 414h-52"/>
    <path d="M368 414l26-24"/>
    <path d="M368 414l26 24"/>
    <path d="M794 414h-54"/>
    <path d="M740 414l26-24"/>
    <path d="M740 414l26 24"/>
    <path d="M600 558c0 96-78 174-174 174H280"/>
    <path d="M280 732l30-26"/>
    <path d="M280 732l30 26"/>
    <path d="M600 558c0 96 78 174 174 174h146"/>
    <path d="M920 732l-30-26"/>
    <path d="M920 732l-30 26"/>
  </g>

  <g fill="#eceff3">
    <circle cx="214" cy="394" r="20"/>
    <circle cx="278" cy="394" r="20"/>
    <circle cx="342" cy="394" r="20"/>
    <path d="M196 450h164" stroke="#eceff3" stroke-width="16" stroke-linecap="round" opacity=".44"/>
    <path d="M190 480h120" stroke="#eceff3" stroke-width="16" stroke-linecap="round" opacity=".26"/>
  </g>

  <g stroke="#eceff3" stroke-width="12">
    <circle cx="600" cy="358" r="54" fill="#191d22"/>
    <circle cx="532" cy="458" r="44" fill="#191d22"/>
    <circle cx="668" cy="458" r="44" fill="#191d22"/>
    <path d="M568 390l-24 36"/>
    <path d="M632 390l24 36"/>
    <path d="M576 458h48"/>
  </g>
  <circle cx="600" cy="358" r="18" fill="#ff3b52"/>
  <circle cx="532" cy="458" r="14" fill="#ff3b52"/>
  <circle cx="668" cy="458" r="14" fill="#ff3b52"/>

  <g fill="none" stroke="#eceff3" stroke-width="14" stroke-linecap="round">
    <path d="M866 382h148"/>
    <path d="M866 426h126"/>
    <path d="M866 470h86"/>
  </g>
  <path d="M1030 388l28 28-62 62" fill="none" stroke="#ff3b52" stroke-width="16" stroke-linecap="round" stroke-linejoin="round"/>

  <g stroke="#eceff3" stroke-width="14" stroke-linejoin="round">
    <path d="M206 704h170c28 0 50 22 50 50v94c0 28-22 50-50 50H206c-28 0-50-22-50-50v-94c0-28 22-50 50-50Z" fill="#191d22"/>
    <path d="M824 704h170c28 0 50 22 50 50v94c0 28-22 50-50 50H824c-28 0-50-22-50-50v-94c0-28 22-50 50-50Z" fill="#191d22"/>
  </g>
  <path d="M224 780c44-46 92-46 136 0" fill="none" stroke="#ff3b52" stroke-width="16" stroke-linecap="round"/>
  <path d="M224 824h136" stroke="#eceff3" stroke-width="14" stroke-linecap="round" opacity=".36"/>
  <circle cx="850" cy="778" r="18" fill="#ff3b52"/>
  <circle cx="910" cy="778" r="18" fill="#ff3b52"/>
  <circle cx="970" cy="778" r="18" fill="#ff3b52"/>
  <path d="M852 824h120" stroke="#eceff3" stroke-width="14" stroke-linecap="round" opacity=".36"/>

  <path d="M190 1014h820" stroke="#eceff3" stroke-width="20" stroke-linecap="round" opacity=".16"/>
  <path d="M254 966h204" stroke="#eceff3" stroke-width="18" stroke-linecap="round" opacity=".34"/>
  <path d="M506 966h192" stroke="#ff3b52" stroke-width="18" stroke-linecap="round"/>
  <path d="M744 966h204" stroke="#eceff3" stroke-width="18" stroke-linecap="round" opacity=".24"/>
</svg>
