<svg xmlns="http://www.w3.org/2000/svg" viewBox="0 0 1200 1200" role="img" aria-labelledby="title desc">
  <title id="title">Sensitive data exposure map</title>
  <desc id="desc">A grid of storage buckets with red sensitivity hotspots and access paths.</desc>
  <rect width="1200" height="1200" fill="#191918"/>
  <g fill="none" stroke="#eceff3" stroke-width="12" opacity=".20">
    <path d="M214 240h772"/>
    <path d="M214 420h772"/>
    <path d="M214 600h772"/>
    <path d="M214 780h772"/>
    <path d="M300 154v724"/>
    <path d="M480 154v724"/>
    <path d="M660 154v724"/>
    <path d="M840 154v724"/>
  </g>
  <g stroke="#eceff3" stroke-width="16" stroke-linejoin="round">
    <path d="M246 206h142l34 42v116H212V248l34-42Z" fill="#191918"/>
    <path d="M626 386h142l34 42v116H592V428l34-42Z" fill="#191918"/>
    <path d="M806 676h142l34 42v116H772V718l34-42Z" fill="#191918"/>
    <path d="M424 654h142l34 42v116H390V696l34-42Z" fill="#191918"/>
  </g>
  <circle cx="316" cy="290" r="84" fill="#ff3b52" opacity=".16"/>
  <circle cx="696" cy="470" r="118" fill="#ff3b52" opacity=".18"/>
  <circle cx="876" cy="760" r="150" fill="#ff3b52" opacity=".2"/>
  <circle cx="496" cy="738" r="76" fill="#ff3b52" opacity=".14"/>
  <g fill="#ff3b52">
    <circle cx="316" cy="290" r="22"/>
    <circle cx="696" cy="470" r="28"/>
    <circle cx="876" cy="760" r="34"/>
    <circle cx="496" cy="738" r="20"/>
  </g>
  <path d="M316 290c142 0 238 78 380 180s250 176 180 290" fill="none" stroke="#ff3b52" stroke-width="18" stroke-linecap="round" stroke-dasharray="32 30"/>
  <path d="M220 1000h760" stroke="#eceff3" stroke-width="20" stroke-linecap="round" opacity=".24"/>
  <path d="M284 952h168" stroke="#eceff3" stroke-width="18" stroke-linecap="round" opacity=".48"/>
  <path d="M512 952h240" stroke="#ff3b52" stroke-width="18" stroke-linecap="round"/>
  <path d="M812 952h104" stroke="#eceff3" stroke-width="18" stroke-linecap="round" opacity=".30"/>
</svg>
